<svg width="122" height="109" viewBox="0 0 122 109" fill="none" xmlns="http://www.w3.org/2000/svg">
<path d="M99.264 39.7922C110.695 39.7922 119.962 31.1083 119.962 20.3961C119.962 9.68393 110.695 1 99.264 1C87.8328 1 78.5661 9.68393 78.5661 20.3961C78.5661 31.1083 87.8328 39.7922 99.264 39.7922Z" fill="#FFD60A" stroke="black" stroke-width="0.857143" stroke-linecap="round" stroke-linejoin="round"/>
<g filter="url(#filter0_b_78_36)">
<path d="M98.2261 66.4955C93.2257 66.5016 88.3611 67.9727 84.3568 70.6898C84.3568 63.2239 81.9165 55.9255 77.3446 49.7178C72.7727 43.5101 66.2743 38.6717 58.6715 35.8146C51.0686 32.9575 42.7026 32.21 34.6314 33.6665C26.5603 35.123 19.1464 38.7183 13.3274 43.9975C7.50847 49.2767 3.54565 56.0029 1.9402 63.3254C0.334752 70.648 1.15874 78.238 4.30794 85.1356C7.45713 92.0333 12.7902 97.9288 19.6326 102.077C26.4749 106.225 34.5195 108.438 42.7488 108.438H98.2261C104.357 108.438 110.236 106.229 114.571 102.296C118.906 98.3632 121.342 93.029 121.342 87.467C121.342 81.905 118.906 76.5709 114.571 72.6379C110.236 68.705 104.357 66.4955 98.2261 66.4955Z" fill="url(#paint0_linear_78_36)" fill-opacity="0.8"/>
<path d="M98.2261 66.4955C93.2257 66.5016 88.3611 67.9727 84.3568 70.6898C84.3568 63.2239 81.9165 55.9255 77.3446 49.7178C72.7727 43.5101 66.2743 38.6717 58.6715 35.8146C51.0686 32.9575 42.7026 32.21 34.6314 33.6665C26.5603 35.123 19.1464 38.7183 13.3274 43.9975C7.50847 49.2767 3.54565 56.0029 1.9402 63.3254C0.334752 70.648 1.15874 78.238 4.30794 85.1356C7.45713 92.0333 12.7902 97.9288 19.6326 102.077C26.4749 106.225 34.5195 108.438 42.7488 108.438H98.2261C104.357 108.438 110.236 106.229 114.571 102.296C118.906 98.3632 121.342 93.029 121.342 87.467C121.342 81.905 118.906 76.5709 114.571 72.6379C110.236 68.705 104.357 66.4955 98.2261 66.4955Z" stroke="url(#paint1_linear_78_36)" stroke-width="0.857143" stroke-linecap="round" stroke-linejoin="round"/>
</g>
<defs>
<filter id="filter0_b_78_36" x="-49.2879" y="-17.4874" width="221.058" height="176.354" filterUnits="userSpaceOnUse" color-interpolation-filters="sRGB">
<feFlood flood-opacity="0" result="BackgroundImageFix"/>
<feGaussianBlur in="BackgroundImageFix" stdDeviation="25"/>
<feComposite in2="SourceAlpha" operator="in" result="effect1_backgroundBlur_78_36"/>
<feBlend mode="normal" in="SourceGraphic" in2="effect1_backgroundBlur_78_36" result="shape"/>
</filter>
<linearGradient id="paint0_linear_78_36" x1="69.3772" y1="49.9833" x2="69.3772" y2="125.481" gradientUnits="userSpaceOnUse">
<stop stop-color="#00A9E2" stop-opacity="0.75"/>
<stop offset="1" stop-color="white" stop-opacity="0.45"/>
</linearGradient>
<linearGradient id="paint1_linear_78_36" x1="102.587" y1="81.3007" x2="104.363" y2="141.5" gradientUnits="userSpaceOnUse">
<stop stop-opacity="0.75"/>
<stop offset="1" stop-opacity="0.25"/>
</linearGradient>
</defs>
</svg>
