<svg width="27" height="28" viewBox="0 0 27 28" fill="none" xmlns="http://www.w3.org/2000/svg">
<path d="M26.6295 26.1904C26.6292 26.5772 26.4753 26.948 26.2016 27.2213C25.9279 27.4945 25.5568 27.6479 25.17 27.6476L1.83669 27.6295C1.44992 27.6292 1.07911 27.4753 0.805829 27.2016C0.53255 26.9279 0.379192 26.5568 0.379492 26.17L0.391373 10.8415C0.391391 10.6193 0.442198 10.4 0.539913 10.2004C0.637629 10.0008 0.779668 9.82617 0.955182 9.68986L12.6289 0.625151C12.885 0.426208 13.2002 0.318332 13.5245 0.318583C13.8489 0.318835 14.1639 0.427199 14.4197 0.626539L26.0793 9.70933C26.2546 9.84592 26.3964 10.0208 26.4938 10.2205C26.5912 10.4203 26.6417 10.6396 26.6414 10.8619L26.6295 26.1904ZM23.714 24.7298L23.7241 11.5727L13.522 3.62418L3.30749 11.5569L3.29729 24.714L23.714 24.7298Z" fill="black"/>
</svg>
