<svg width="36" height="36" viewBox="0 0 36 36" fill="none" xmlns="http://www.w3.org/2000/svg">
<g clip-path="url(#clip0_163_106)">
<path d="M19.6951 25.1715L18.6013 25.1706L18.6089 15.3952C18.6089 15.3837 18.6057 15.3728 18.6057 15.3608C18.6057 15.3487 18.609 15.3384 18.609 15.3269C18.6094 14.7231 18.1198 14.2328 17.5161 14.2323L15.3286 14.2306C14.7248 14.2301 14.2344 14.7197 14.234 15.3235C14.2335 15.9272 14.7231 16.4176 15.3269 16.4181L16.4206 16.4189L16.4138 25.1689L15.3201 25.1681C14.7163 25.1676 14.226 25.6572 14.2255 26.261C14.225 26.8647 14.7147 27.3551 15.3184 27.3556L19.6934 27.359C20.2972 27.3594 20.7875 26.8698 20.788 26.2661C20.7885 25.6623 20.2988 25.1719 19.6951 25.1715ZM17.5178 12.0448C18.7258 12.0457 19.706 11.067 19.707 9.85895C19.7079 8.6509 18.7292 7.67069 17.5212 7.66975C16.3131 7.66881 15.3329 8.64751 15.332 9.85556C15.331 11.0636 16.3097 12.0438 17.5178 12.0448ZM17.5271 0.0135025C7.86218 0.00601164 0.0210269 7.83502 0.013536 17.4999C0.00604469 27.1654 7.83505 35.006 17.5 35.0135C27.1654 35.021 35.006 27.1925 35.0135 17.5271C35.021 7.86214 27.1926 0.0209939 17.5271 0.0135025ZM17.5016 32.8604C9.05844 32.8539 2.19449 25.9448 2.20104 17.5016C2.20758 9.05836 9.0822 2.19439 17.5254 2.20093C25.9686 2.20748 32.8326 9.08213 32.826 17.5253C32.8195 25.9685 25.9448 32.867 17.5016 32.8604Z" fill="black"/>
</g>
<defs>
<clipPath id="clip0_163_106">
<rect width="35" height="35" fill="white" transform="translate(0.0270996) rotate(0.0444078)"/>
</clipPath>
</defs>
</svg>
