<svg width="40" height="40" viewBox="0 0 40 40" fill="none" xmlns="http://www.w3.org/2000/svg">
<g clip-path="url(#clip0_147_322)">
<path d="M0 0H40V40H0V0Z" fill="#B4D7EE"/>
<path opacity="0.33" d="M40 21L31.875 22.625L26.25 19.6875L7.625 22.75L0 20.875V39.6875H40V21Z" fill="#62727A"/>
<path opacity="0.33" d="M0 27.25L6.25 29.5L13.75 25.9375L36.75 29.625L40 27.125V39.6875H0V27.25Z" fill="#62727A"/>
<path d="M34.875 31.0625L28.125 25.75L21.25 14.375L17.375 20.0625L11.875 23.8125L9.0625 29.6875L6.25 31.0625L0 40H40L34.875 31.0625Z" fill="#62727A"/>
<path d="M21.25 14.375L20.1875 19.0625L23 22.875L19.5625 22.6875L24.5625 26.25L20.8125 28.625L17.3125 36.5L18.25 30.875L11.25 29.4375L19.0625 26.9375L17.375 20.0625L21.25 14.375ZM31.875 28.75L28.4375 32.5625L23.4375 36.5L30.625 33.5625L34.875 31.0625L31.875 28.75ZM9.0625 29.6875L6.25 31.0625L11.25 35.0625L9.0625 29.6875ZM27.4375 12.25C27.3125 12.0625 27.25 11.875 27.25 11.625C27.25 11.0625 27.6875 10.625 28.25 10.625C28.75 10.625 29.1875 11 29.25 11.5C29.5625 11.375 29.875 11.3125 30.1875 11.3125C31.125 11.3125 31.9375 11.875 32.375 12.625C32.5625 12.375 32.9375 12.1875 33.3125 12.1875C33.5 12.1875 33.6875 12.25 33.875 12.3125C34.25 11.6875 34.875 11.25 35.6875 11.25C36.5 11.25 37.25 11.75 37.5625 12.4375H37.75C38.375 12.4375 38.875 12.9375 38.875 13.5C38.875 14.0625 38.375 14.5625 37.75 14.5625C37.5625 14.5625 37.4375 14.5 37.3125 14.4375C36.8125 15 36.25 15.3125 35.625 15.3125H35.5625C35.4375 15.75 35.0625 16.0625 34.5625 16.0625C34.4375 16.0625 34.3125 16.0625 34.1875 16C33.875 16.5625 33.3125 16.875 32.625 16.875C31.9375 16.875 31.3125 16.5 31 15.875C30.75 16 30.4375 16 30.1875 16C29.375 16 28.6875 15.625 28.25 15C28.125 15.0625 27.9375 15.0625 27.75 15.0625C26.9375 15.0625 26.25 14.375 26.25 13.5625C26.25 12.9375 26.75 12.375 27.4375 12.25Z" fill="white"/>
<path d="M37.375 13.8125C37.25 13.8125 37.0625 13.8125 36.9375 13.75C36.5625 14.125 36.0625 14.375 35.4375 14.375H35.375C35.25 14.75 34.875 15 34.4375 15C34.3125 15 34.1875 15 34.0625 14.9375C33.75 15.375 33.1875 15.6875 32.5625 15.6875C31.875 15.6875 31.3125 15.375 31.0625 14.875C30.8125 14.9375 30.5625 15 30.25 15C29.5 15 28.8125 14.6875 28.375 14.1875C28.25 14.25 28.0625 14.25 27.9375 14.25C27.625 14.25 27.375 14.1875 27.1875 14.0625C27.375 14.5 27.875 14.8125 28.375 14.8125C28.5 14.8125 28.6875 14.8125 28.8125 14.75C29.1875 15.25 29.8125 15.5625 30.5 15.5625C30.75 15.5625 31 15.5 31.25 15.4375C31.5 15.9375 32 16.25 32.625 16.25C33.1875 16.25 33.6875 15.9375 34 15.5C34.125 15.5625 34.25 15.5625 34.3125 15.5625C34.75 15.5625 35.0625 15.3125 35.1875 14.9375H35.25C35.8125 14.9375 36.3125 14.6875 36.625 14.3125C36.75 14.375 36.875 14.375 37 14.375C37.4375 14.375 37.75 14.125 37.875 13.75C37.6875 13.8125 37.5 13.8125 37.375 13.8125Z" fill="#B4D7EE"/>
<path d="M17.6875 5.375C17.875 5.125 18 4.875 18 4.5625C18 3.8125 17.375 3.1875 16.5625 3.1875C15.875 3.1875 15.25 3.6875 15.125 4.375C14.75 4.1875 14.3125 4.125 13.8125 4.125C12.5 4.125 11.3125 4.875 10.8125 6C10.5 5.625 10.0625 5.375 9.5625 5.375C9.25 5.375 9 5.4375 8.75 5.5625C8.25 4.6875 7.3125 4.125 6.25 4.125C5.0625 4.125 4.0625 4.8125 3.625 5.8125H3.375C2.5625 5.75 1.875 6.375 1.875 7.25C1.875 8.125 2.5625 8.75 3.4375 8.75C3.6875 8.75 3.875 8.6875 4.0625 8.625C4.5625 9.25 5.375 9.6875 6.3125 9.6875H6.375C6.5625 10.3125 7.0625 10.75 7.75 10.75C7.9375 10.75 8.125 10.6875 8.3125 10.625C8.75 11.375 9.5625 11.875 10.5 11.875C11.5 11.875 12.3125 11.3125 12.75 10.5C13.125 10.625 13.5 10.6875 13.9375 10.6875C15.0625 10.6875 16.0625 10.125 16.6875 9.3125C16.875 9.375 17.125 9.4375 17.375 9.4375C18.5625 9.4375 19.5 8.5 19.5 7.375C19.375 6.375 18.6875 5.5625 17.6875 5.375Z" fill="white"/>
<path d="M16.9375 7.625C16.6875 7.625 16.5 7.5625 16.3125 7.5C15.75 8.1875 14.8125 8.625 13.6875 8.625C13.3125 8.625 12.9375 8.5625 12.5625 8.4375C12.1875 9.125 11.375 9.5625 10.4375 9.5625C9.5625 9.5625 8.75 9.125 8.375 8.5C8.1875 8.5625 8.0625 8.5625 7.875 8.5625C7.25 8.5625 6.6875 8.1875 6.5625 7.6875H6.5C5.625 7.8125 4.875 7.4375 4.375 6.875C4.1875 6.9375 4 7 3.75 7C3.5 7 3.3125 6.9375 3.125 6.875C3.1875 7.5 3.75 8.0625 4.4375 8.0625C4.625 8.0625 4.8125 8 5 7.9375C5.4375 8.5 6.125 8.8125 6.9375 8.8125H7C7.125 9.3125 7.625 9.6875 8.1875 9.6875C8.375 9.6875 8.5 9.625 8.6875 9.625C9.0625 10.25 9.75 10.6875 10.5625 10.6875C11.4375 10.6875 12.125 10.25 12.5 9.5625C12.8125 9.6875 13.125 9.75 13.5 9.75C14.4375 9.75 15.3125 9.3125 15.875 8.625C16.0625 8.6875 16.25 8.75 16.4375 8.75C17.3125 8.75 18.0625 8.1875 18.25 7.375C17.8125 7.5 17.375 7.625 16.9375 7.625Z" fill="#B4D7EE"/>
</g>
<defs>
<clipPath id="clip0_147_322">
<rect width="40" height="40" rx="10" fill="white"/>
</clipPath>
</defs>
</svg>
