<svg width="34" height="34" viewBox="0 0 34 34" fill="none" xmlns="http://www.w3.org/2000/svg">
<path d="M4.58021 3.00305C4.98607 3.00388 5.37511 3.10626 5.66177 3.28768C5.94842 3.46911 6.10919 3.7147 6.10872 3.97045L6.09811 9.75615C6.09651 10.3546 6.38953 10.9391 6.93678 11.429C7.48403 11.9188 8.25858 12.29 9.15367 12.4913L9.16929 3.97667C9.16976 3.72093 9.33144 3.47599 9.61875 3.29573C9.90607 3.11548 10.2955 3.01468 10.7013 3.0155C11.1072 3.01633 11.4962 3.11871 11.7829 3.30014C12.0696 3.48156 12.2303 3.72715 12.2299 3.9829L12.2142 12.4975C13.1101 12.2999 13.886 11.9318 14.435 11.4442C14.984 10.9566 15.2792 10.3733 15.2798 9.77483L15.2904 3.98912C15.2909 3.73338 15.4526 3.48844 15.7399 3.30818C16.0272 3.12793 16.4166 3.02713 16.8225 3.02795C17.2283 3.02878 17.6174 3.13116 17.904 3.31259C18.1907 3.49401 18.3515 3.73961 18.351 3.99535L18.3404 9.78105C18.3387 10.8925 17.7276 11.9687 16.6106 12.8275C15.4936 13.6862 13.9392 14.2748 12.2106 14.4936L12.1838 29.0543C12.1834 29.31 12.0217 29.555 11.7344 29.7352C11.4471 29.9155 11.0577 30.0163 10.6518 30.0155C10.2459 30.0146 9.85689 29.9122 9.57024 29.7308C9.28359 29.5494 9.12281 29.3038 9.12328 29.0481L9.15 14.4874C7.42216 14.2616 5.86996 13.6667 4.7561 12.8034C3.64224 11.9401 3.03514 10.8614 3.03754 9.74993L3.04816 3.96422C3.04863 3.70848 3.2103 3.46354 3.49762 3.28328C3.78493 3.10303 4.17435 3.00223 4.58021 3.00305ZM25.9347 5.89885C26.4219 5.59127 26.9701 5.35517 27.5305 5.20009L27.5132 14.6211L24.4527 14.6149L24.465 7.86493C24.4662 7.21501 25.0001 6.48324 25.9347 5.89885ZM27.5097 16.5497L27.4867 29.0854C27.4862 29.3411 27.647 29.5867 27.9336 29.7682C28.2203 29.9496 28.6093 30.052 29.0152 30.0528C29.4211 30.0536 29.8105 29.9528 30.0978 29.7726C30.3851 29.5923 30.5468 29.3474 30.5473 29.0916L30.5933 4.02025C30.5937 3.76451 30.433 3.51891 30.1463 3.33749C29.8596 3.15606 29.4706 3.05368 29.0647 3.05285C27.0356 3.04873 25.1369 3.67358 23.7703 4.52902C22.4068 5.38639 21.4068 6.58007 21.4045 7.85871L21.3903 15.573C21.3899 15.8287 21.5506 16.0743 21.8373 16.2557C22.1239 16.4372 22.513 16.5396 22.9188 16.5404L27.5097 16.5497Z" fill="#E3BCC3" fill-opacity="0.51"/>
<path d="M7.5981 9.76045L7.5981 9.7592L7.60872 3.9735C7.61044 3.03857 7.02638 2.37633 6.46377 2.02025L5.66177 3.28768L6.46377 2.02025C5.89456 1.66 5.21566 1.50434 4.58296 1.50305C3.95026 1.50177 3.2708 1.65466 2.70027 2.0126C2.13636 2.36638 1.54988 3.02624 1.54816 3.96117L1.53754 9.74639C1.53754 9.74653 1.53754 9.74668 1.53754 9.74682C1.53754 9.74684 1.53754 9.74686 1.53754 9.74688C1.53406 11.4447 2.46417 12.9246 3.83736 13.9889L4.7561 12.8034L3.83736 13.9889C4.8918 14.8061 6.21387 15.393 7.64771 15.7348L7.62329 29.045C7.62157 29.9799 8.20562 30.6422 8.76823 30.9982L9.57024 29.7308L8.76824 30.9983C9.33745 31.3585 10.0163 31.5142 10.649 31.5154C11.2817 31.5167 11.9612 31.3638 12.5317 31.0059L11.7571 29.7714L12.5317 31.0059C13.0957 30.6521 13.6821 29.9923 13.6838 29.0573L13.7083 15.7471C15.1434 15.4112 16.4676 14.8297 17.525 14.0167C18.9021 12.958 19.8376 11.4819 19.8404 9.7841C19.8404 9.78394 19.8404 9.78378 19.8404 9.78362L19.851 3.9984C19.8527 3.06347 19.2686 2.40123 18.706 2.04515C18.1368 1.6849 17.4579 1.52924 16.8252 1.52796C16.1925 1.52667 15.5131 1.67956 14.9425 2.0375C14.3786 2.39128 13.7921 3.05114 13.7904 3.98607L13.7798 9.77178L13.7798 9.77302C13.7798 9.8122 13.7708 9.88534 13.7188 9.98497L13.7299 3.98595C13.7316 3.05102 13.1475 2.38878 12.5849 2.0327C12.0157 1.67245 11.3368 1.51679 10.7041 1.5155C10.0714 1.51422 9.39193 1.66711 8.8214 2.02505C8.25749 2.37883 7.67101 3.03869 7.66929 3.97362L7.65828 9.97265C7.60673 9.87281 7.598 9.79962 7.5981 9.76045ZM26.0258 7.79176L26.016 13.1181L25.9554 13.118L25.965 7.9013C25.9714 7.88449 25.9878 7.8479 26.0258 7.79176ZM26.0069 18.0467L25.9867 29.0824C25.985 30.0173 26.569 30.6795 27.1316 31.0356C27.7008 31.3959 28.3797 31.5515 29.0124 31.5528C29.6451 31.5541 30.3246 31.4012 30.8951 31.0433C31.4591 30.6895 32.0455 30.0296 32.0472 29.0947L32.0933 4.0233C32.095 3.08837 31.5109 2.42613 30.9483 2.07005C30.3791 1.7098 29.7002 1.55414 29.0675 1.55286C26.7444 1.54813 24.5703 2.25842 22.9742 3.25752L22.9717 3.25914C21.4623 4.20822 19.9083 5.79431 19.9045 7.85566L19.8903 15.5699C19.8886 16.5049 20.4727 17.1671 21.0353 17.5232L21.8373 16.2557L21.0353 17.5232C21.6045 17.8834 22.2834 18.0391 22.9161 18.0404L26.0069 18.0467Z" stroke="#E4153A" stroke-opacity="0.7" stroke-width="3"/>
</svg>
