<svg width="33" height="34" viewBox="0 0 33 34" fill="none" xmlns="http://www.w3.org/2000/svg">
<path d="M12.4614 33.1982L11.8213 27.973C11.4747 27.8369 11.1477 27.6736 10.8405 27.4831C10.5333 27.2926 10.2335 27.0885 9.94126 26.8708L5.18108 28.9119L0.780914 21.1557L4.90107 17.9715C4.8744 17.781 4.86107 17.5971 4.86107 17.4196V16.3191C4.86107 16.1416 4.8744 15.9577 4.90107 15.7672L0.780914 12.583L5.18108 4.82684L9.94126 6.86795C10.2346 6.65023 10.5413 6.44612 10.8613 6.25562C11.1813 6.06511 11.5013 5.90183 11.8213 5.76575L12.4614 0.540527H21.2617L21.9017 5.76575C22.2484 5.90183 22.5753 6.06511 22.8826 6.25562C23.1898 6.44612 23.4895 6.65023 23.7818 6.86795L28.542 4.82684L32.9421 12.583L28.822 15.7672C28.8487 15.9577 28.862 16.1416 28.862 16.3191V17.4196C28.862 17.5971 28.8353 17.781 28.782 17.9715L32.9021 21.1557L28.502 28.9119L23.7818 26.8708C23.4884 27.0885 23.1818 27.2926 22.8618 27.4831C22.5417 27.6736 22.2217 27.8369 21.9017 27.973L21.2617 33.1982H12.4614ZM16.9415 22.5844C18.4883 22.5844 19.8083 22.0265 20.9017 20.9107C21.9951 19.7949 22.5417 18.4478 22.5417 16.8694C22.5417 15.2909 21.9951 13.9438 20.9017 12.828C19.8083 11.7122 18.4883 11.1543 16.9415 11.1543C15.3681 11.1543 14.0412 11.7122 12.9606 12.828C11.88 13.9438 11.3403 15.2909 11.3413 16.8694C11.3413 18.4478 11.8811 19.7949 12.9606 20.9107C14.0401 22.0265 15.3671 22.5844 16.9415 22.5844ZM16.9415 19.3187C16.2748 19.3187 15.7079 19.0803 15.2407 18.6035C14.7734 18.1267 14.5404 17.5486 14.5414 16.8694C14.5414 16.189 14.775 15.6104 15.2423 15.1336C15.7095 14.6568 16.2759 14.4189 16.9415 14.42C17.6082 14.42 18.1752 14.6584 18.6424 15.1352C19.1096 15.612 19.3427 16.1901 19.3416 16.8694C19.3416 17.5497 19.108 18.1283 18.6408 18.6051C18.1736 19.0819 17.6072 19.3198 16.9415 19.3187ZM15.2615 29.9324H18.4216L18.9816 25.6053C19.8083 25.3876 20.5753 25.0675 21.2825 24.6451C21.9897 24.2228 22.6361 23.7128 23.2218 23.1151L27.1819 24.7888L28.742 22.0129L25.3018 19.3595C25.4352 18.9785 25.5285 18.5774 25.5819 18.1561C25.6352 17.7348 25.6619 17.3059 25.6619 16.8694C25.6619 16.4339 25.6352 16.0056 25.5819 15.5843C25.5285 15.163 25.4352 14.7613 25.3018 14.3792L28.742 11.7258L27.1819 8.94987L23.2218 10.6644C22.6351 10.0385 21.9887 9.51485 21.2825 9.09357C20.5763 8.67228 19.8094 8.35224 18.9816 8.13343L18.4616 3.80629H15.3015L14.7414 8.13343C13.9147 8.35115 13.1483 8.67119 12.4422 9.09357C11.736 9.51594 11.089 10.0259 10.5013 10.6236L6.54113 8.94987L4.98107 11.7258L8.42121 14.3384C8.28787 14.7466 8.19453 15.1548 8.1412 15.563C8.08786 15.9713 8.06119 16.4067 8.06119 16.8694C8.06119 17.3048 8.08786 17.7266 8.1412 18.1348C8.19453 18.5431 8.28787 18.9513 8.42121 19.3595L4.98107 22.0129L6.54113 24.7888L10.5013 23.0743C11.088 23.7002 11.7349 24.2244 12.4422 24.6468C13.1494 25.0691 13.9158 25.3886 14.7414 25.6053L15.2615 29.9324Z" fill="black"/>
</svg>
